<?xml version="1.0" encoding="UTF-8"?>
<svg id="Layer_1" data-name="Layer 1" xmlns="http://www.w3.org/2000/svg" viewBox="0 0 4000 4000">
  <defs>
    <style>
      .cls-1 {
        fill: #f8f7f7;
      }
    </style>
  </defs>
  <path class="cls-1" d="M3129.73,912.38v-24.01h24.01v-7.25h89.67v-3.61h-89.67v-7.11h-24.01v-24.01h-7.24v-89.79h-3.61v89.79h-7.13v24.01h-24.01v7.11h-89.78v-120.92h-3.61v120.92h-89.76v-7.11h-24.01v-24.01h-7.15v-89.79h-3.61v89.79h-7.21v24.01h-24.01v7.11h-89.69v-120.92h-3.61v120.92h-89.8v-7.11h-24.01v-24.01h-7.11v-89.79h-3.61v89.79h-7.26v24.01h-24.01v7.11h-89.65v-120.92h-3.61v120.92h-89.77v-7.11h-24.01v-24.01h-7.14v-89.79h-3.61v89.79h-7.22v24.01h-24.01v7.11h-89.68v-120.92h-3.61v120.92h-89.66v-7.11h-24.01v-24.01h-7.25v-89.79h-3.61v89.79h-7.11v24.01h-24.01v7.11h-89.79v-120.92h-3.61v120.92h-89.71v-7.11h-24.01v-24.01h-7.2v-89.79h-3.61v89.79h-7.17v24.01h-24.01v7.11h-89.74v-120.92h-3.61v120.92h-89.72v-7.11h-24.01v-24.01h-7.18v-89.79h-3.61v89.79h-7.18v24.01h-24.01v7.11h-89.72v-120.92h-3.61v120.92h-89.69v-7.11h-24.01v-24.01h-7.21v-89.79h-3.61v89.79h-7.15v24.01h-24.01v7.11h-89.75v-120.92h-3.61v120.92h-89.72v-7.11h-24.01v-24.01h-7.18v-89.79h-3.61v89.79h-7.18v24.01h-24.01v7.11h-89.72v-120.92h-3.61v120.92h-89.71v-7.11h-24.01v-24.01h-7.2v-89.79h-3.61v89.79h-7.16v24.01h-24.01v7.11h-89.74v3.61h89.74v7.25h24.01v24.01h7.16v89.65h-120.92v3.61h120.92v89.72h-6.73v24.01h-24.01v7.18h-90.17v3.61h90.17v7.18h24.01v24.01h6.73v89.72h-120.92v3.61h120.92v89.83h-6.88v24.01h-24.01v7.07h-90.02v3.61h90.02v7.29h24.01v24.01h6.88v89.61h-120.92v3.61h120.92v89.79h-7.15v24.01h-24.01v7.12h-89.75v3.61h89.75v7.24h24.01v24.01h7.15v89.66h-120.92v3.61h120.92v89.56h-7.15v24.01h-24.01v7.35h-89.75v3.61h89.75v7.01h24.01v24.01h7.15v89.89h-120.92v3.61h120.92v89.73h-7.21v24.01h-24.01v7.18h-89.7v3.61h89.7v7.19h24.01v24.01h7.21v89.72h-120.92v3.61h120.92v89.73h-7.21v24.01h-24.01v7.17h-89.7v3.61h89.7v7.19h24.01v24.01h7.21v89.71h-120.92v3.61h120.92v89.3h-6.76v24.01h-24.01v7.6h-90.14v3.61h90.14v6.76h24.01v24.01h6.76v90.14h-120.92v3.61h120.92v89.7h-7.19v24.01h-24.01v7.21h-89.71v3.61h89.71v7.15h24.01v24.01h7.19v89.75h-120.92v3.61h120.92v89.71h-7.19v24.01h-24.01v7.2h-89.72v3.61h89.72v7.17h24.01v24.01h7.19v89.74h3.61v-89.74h7.18v-24.01h24.01v-7.17h89.73v120.92h3.61v-120.92h89.46v7.17h24.01v24.01h7.45v89.74h3.61v-89.74h6.91v-24.01h24.01v-7.17h89.99v120.92h3.61v-120.92h89.53v7.19h24.01v24.01h7.38v89.72h3.61v-89.72h6.98v-24.01h24.01v-7.19h89.92v120.92h3.61v-120.92h89.52v7.19h24.01v24.01h7.38v89.71h3.61v-89.71h6.98v-24.01h24.01v-7.19h89.92v120.92h3.61v-120.92h89.52v7.17h24.01v24.01h7.38v89.73h3.61v-89.73h6.98v-24.01h24.01v-7.17h89.92v120.92h3.61v-120.92h89.56v7.2h24.01v24.01h7.35v89.71h3.61v-89.71h7.01v-24.01h24.01v-7.2h89.89v120.92h3.61v-120.92h89.52v7.19h24.01v24.01h7.38v89.72h3.61v-89.72h6.98v-24.01h24.01v-7.19h89.93v120.92h3.61v-120.92h89.52v7.19h24.01v24.01h7.39v89.72h3.61v-89.72h6.97v-24.01h24.01v-7.19h89.93v120.92h3.61v-120.92h89.52v7.19h24.01v24.01h7.38v89.72h3.61v-89.72h6.98v-24.01h24.01v-7.19h89.93v120.92h3.61v-120.92h89.52v7.19h24.01v24.01h7.39v89.71h3.61v-89.71h6.98v-24.01h24.01v-7.19h89.93v-3.61h-89.93v-7.17h-24.01v-24.01h-6.98v-89.73h120.92v-3.61h-120.92v-89.73h6.97v-24.01h24.01v-7.18h89.93v-3.61h-89.93v-7.19h-24.01v-24.01h-6.97v-89.72h120.92v-3.61h-120.92v-90.12h7.4v-24.01h24.01v-6.79h89.5v-3.61h-89.5v-7.58h-24.01v-24.01h-7.4v-89.33h120.92v-3.61h-120.92v-89.69h6.96v-24.01h24.01v-7.21h89.95v-3.61h-89.95v-7.15h-24.01v-24.01h-6.96v-89.76h120.92v-3.61h-120.92v-89.69h6.96v-24.01h24.01v-7.21h89.95v-3.61h-89.95v-7.15h-24.01v-24.01h-6.96v-89.75h120.92v-3.61h-120.92v-89.87h7.02v-24.01h24.01v-7.04h89.89v-3.61h-89.89v-7.32h-24.01v-24.01h-7.02v-89.58h120.92v-3.61h-120.92v-89.72h7.18v-24.01h24.01v-7.18h89.72v-3.61h-89.72v-7.18h-24.01v-24.01h-7.18v-89.72h120.92v-3.61h-120.92v-89.61h7.52v-24.01h24.01v-7.29h89.39v-3.61h-89.39v-7.07h-24.01v-24.01h-7.52v-89.83h120.92v-3.61h-120.92v-89.72h7.67v-24.01h24.01v-7.18h89.24v-3.61h-89.24v-7.18h-24.01v-24.01h-7.67v-89.72h120.92v-3.61h-120.92v-89.65h7.24ZM1002.03,3118.89h-89.73v-7.2h-24.01v-24.01h-7.18v-89.71h120.92v120.92ZM1002.03,2994.37h-120.92v-89.75h7.17v-24.01h24.01v-7.15h89.73v120.92ZM1002.03,2869.85h-89.73v-7.21h-24.01v-24.01h-7.17v-89.7h120.92v120.92ZM1002.03,2745.33h-120.92v-90.14h7.6v-24.01h24.01v-6.76h89.3v120.92ZM1002.03,2620.8h-89.3v-7.6h-24.01v-24.01h-7.6v-89.3h120.92v120.92ZM1002.03,2496.28h-120.92v-89.71h7.16v-24.01h24.01v-7.19h89.75v120.92ZM1002.03,2371.76h-89.75v-7.17h-24.01v-24.01h-7.16v-89.73h120.92v120.92ZM1002.03,2247.24h-120.92v-89.72h7.15v-24.01h24.01v-7.19h89.75v120.92ZM1002.03,2122.72h-89.75v-7.18h-24.01v-24.01h-7.15v-89.73h120.92v120.92ZM1002.03,1998.2h-120.92v-89.89h7.21v-24.01h24.01v-7.01h89.69v120.92ZM1002.03,1873.68h-89.69v-7.35h-24.01v-24.01h-7.21v-89.56h120.92v120.92ZM1002.03,1749.15h-120.92v-89.66h7.21v-24.01h24.01v-7.24h89.69v120.92ZM1002.03,1624.63h-89.69v-7.12h-24.01v-24.01h-7.21v-89.79h120.92v120.92ZM1002.03,1500.11h-120.92v-89.61h7.48v-24.01h24.01v-7.29h89.43v120.92ZM1002.03,1375.59h-89.43v-7.07h-24.01v-24.01h-7.48v-89.83h120.92v120.92ZM1002.03,1251.07h-120.92v-89.72h7.63v-24.01h24.01v-7.18h89.28v120.92ZM1002.03,1126.55h-89.28v-7.18h-24.01v-24.01h-7.63v-89.72h120.92v120.92ZM1002.03,1002.03h-120.92v-89.65h7.2v-24.01h24.01v-7.25h89.71v120.92ZM1126.55,3087.68h-7.45v24.01h-24.01v7.2h-89.46v-120.92h120.92v89.71ZM1126.55,2994.37h-120.92v-120.92h89.45v7.15h24.01v24.01h7.45v89.75ZM1126.55,2838.63h-7.45v24.01h-24.01v7.21h-89.45v-120.92h120.92v89.7ZM1126.55,2745.33h-120.92v-120.92h89.88v6.76h24.01v24.01h7.02v90.14ZM1126.55,2589.19h-7.02v24.01h-24.01v7.6h-89.88v-120.92h120.92v89.3ZM1126.55,2496.28h-120.92v-120.92h89.44v7.19h24.01v24.01h7.47v89.71ZM1126.55,2340.58h-7.47v24.01h-24.01v7.17h-89.44v-120.92h120.92v89.73ZM1126.55,2247.24h-120.92v-120.92h89.44v7.19h24.01v24.01h7.47v89.72ZM1126.55,2091.53h-7.47v24.01h-24.01v7.18h-89.44v-120.92h120.92v89.73ZM1126.55,1998.2h-120.92v-120.92h89.49v7.01h24.01v24.01h7.41v89.89ZM1126.55,1842.32h-7.41v24.01h-24.01v7.35h-89.49v-120.92h120.92v89.56ZM1126.55,1749.15h-120.92v-120.92h89.74v7.24h24.01v24.01h7.17v89.66ZM1126.55,1593.5h-7.17v24.01h-24.01v7.12h-89.74v-120.92h120.92v89.79ZM1126.55,1500.11h-120.92v-120.92h90v7.29h24.01v24.01h6.9v89.61ZM1126.55,1344.51h-6.9v24.01h-24.01v7.07h-90v-120.92h120.92v89.83ZM1126.55,1251.07h-120.92v-120.92h90.15v7.18h24.01v24.01h6.75v89.72ZM1126.55,1095.36h-6.75v24.01h-24.01v7.18h-90.15v-120.92h120.92v89.72ZM1126.55,1002.03h-120.92v-120.92h89.72v7.25h24.01v24.01h7.18v89.65ZM1251.07,3118.89h-89.99v-7.2h-24.01v-24.01h-6.91v-89.71h120.92v120.92ZM1251.07,2994.37h-120.92v-89.75h6.91v-24.01h24.01v-7.15h89.99v120.92ZM1251.07,2869.85h-89.99v-7.21h-24.01v-24.01h-6.91v-89.7h120.92v120.92ZM1251.07,2745.33h-120.92v-90.14h7.34v-24.01h24.01v-6.76h89.56v120.92ZM1251.07,2620.8h-89.56v-7.6h-24.01v-24.01h-7.34v-89.3h120.92v120.92ZM1251.07,2496.28h-120.92v-89.71h6.89v-24.01h24.01v-7.19h90.01v120.92ZM1251.07,2371.76h-90.01v-7.17h-24.01v-24.01h-6.89v-89.73h120.92v120.92ZM1251.07,2247.24h-120.92v-89.72h6.89v-24.01h24.01v-7.19h90.01v120.92ZM1251.07,2122.72h-90.01v-7.18h-24.01v-24.01h-6.89v-89.73h120.92v120.92ZM1251.07,1998.2h-120.92v-89.89h6.95v-24.01h24.01v-7.01h89.95v120.92ZM1251.07,1873.68h-89.95v-7.35h-24.01v-24.01h-6.95v-89.56h120.92v120.92ZM1251.07,1749.15h-120.92v-89.66h7.2v-24.01h24.01v-7.24h89.71v120.92ZM1251.07,1624.63h-89.71v-7.12h-24.01v-24.01h-7.2v-89.79h120.92v120.92ZM1251.07,1500.11h-120.92v-89.61h7.46v-24.01h24.01v-7.29h89.44v120.92ZM1251.07,1375.59h-89.44v-7.07h-24.01v-24.01h-7.46v-89.83h120.92v120.92ZM1251.07,1251.07h-120.92v-89.72h7.61v-24.01h24.01v-7.18h89.29v120.92ZM1251.07,1126.55h-89.29v-7.18h-24.01v-24.01h-7.61v-89.72h120.92v120.92ZM1251.07,1002.03h-120.92v-89.65h7.18v-24.01h24.01v-7.25h89.72v120.92ZM1375.59,3087.7h-7.38v24.01h-24.01v7.18h-89.53v-120.92h120.92v89.73ZM1375.59,2994.37h-120.92v-120.92h89.52v7.17h24.01v24.01h7.38v89.73ZM1375.59,2838.64h-7.38v24.01h-24.01v7.19h-89.52v-120.92h120.92v89.71ZM1375.59,2745.33h-120.92v-120.92h89.95v6.78h24.01v24.01h6.95v90.12ZM1375.59,2589.21h-6.95v24.01h-24.01v7.58h-89.95v-120.92h120.92v89.32ZM1375.59,2496.28h-120.92v-120.92h89.51v7.21h24.01v24.01h7.4v89.69ZM1375.59,2340.6h-7.4v24.01h-24.01v7.15h-89.51v-120.92h120.92v89.75ZM1375.59,2247.24h-120.92v-120.92h89.5v7.21h24.01v24.01h7.4v89.7ZM1375.59,2091.55h-7.4v24.01h-24.01v7.16h-89.5v-120.92h120.92v89.75ZM1375.59,1998.2h-120.92v-120.92h89.56v7.03h24.01v24.01h7.34v89.87ZM1375.59,1842.33h-7.34v24.01h-24.01v7.33h-89.56v-120.92h120.92v89.57ZM1375.59,1749.15h-120.92v-120.92h89.77v7.24h24.01v24.01h7.14v89.66ZM1375.59,1593.5h-7.14v24.01h-24.01v7.12h-89.77v-120.92h120.92v89.79ZM1375.59,1500.11h-120.92v-120.92h89.73v7.29h24.01v24.01h7.17v89.61ZM1375.59,1344.51h-7.17v24.01h-24.01v7.07h-89.73v-120.92h120.92v89.83ZM1375.59,1251.07h-120.92v-120.92h90.18v7.18h24.01v24.01h6.72v89.72ZM1375.59,1095.36h-6.72v24.01h-24.01v7.18h-90.18v-120.92h120.92v89.72ZM1375.59,1002.03h-120.92v-120.92h89.75v7.25h24.01v24.01h7.15v89.65ZM1500.11,3118.89h-89.92v-7.18h-24.01v-24.01h-6.98v-89.73h120.92v120.92ZM1500.11,2994.37h-120.92v-89.73h6.98v-24.01h24.01v-7.17h89.92v120.92ZM1500.11,2869.85h-89.92v-7.19h-24.01v-24.01h-6.98v-89.71h120.92v120.92ZM1500.11,2745.33h-120.92v-90.12h7.41v-24.01h24.01v-6.78h89.49v120.92ZM1500.11,2620.8h-89.49v-7.58h-24.01v-24.01h-7.41v-89.32h120.92v120.92ZM1500.11,2496.28h-120.92v-89.69h6.96v-24.01h24.01v-7.21h89.94v120.92ZM1500.11,2371.76h-89.94v-7.15h-24.01v-24.01h-6.96v-89.75h120.92v120.92ZM1500.11,2247.24h-120.92v-89.7h6.96v-24.01h24.01v-7.21h89.94v120.92ZM1500.11,2122.72h-89.94v-7.16h-24.01v-24.01h-6.96v-89.75h120.92v120.92ZM1500.11,1998.2h-120.92v-89.87h7.02v-24.01h24.01v-7.03h89.88v120.92ZM1500.11,1873.68h-89.88v-7.33h-24.01v-24.01h-7.02v-89.57h120.92v120.92ZM1500.11,1749.15h-120.92v-89.66h7.23v-24.01h24.01v-7.24h89.68v120.92ZM1500.11,1624.63h-89.68v-7.12h-24.01v-24.01h-7.23v-89.79h120.92v120.92ZM1500.11,1500.11h-120.92v-89.61h7.19v-24.01h24.01v-7.29h89.71v120.92ZM1500.11,1375.59h-89.71v-7.07h-24.01v-24.01h-7.19v-89.83h120.92v120.92ZM1500.11,1251.07h-120.92v-89.72h7.64v-24.01h24.01v-7.18h89.26v120.92ZM1500.11,1126.55h-89.26v-7.18h-24.01v-24.01h-7.64v-89.72h120.92v120.92ZM1500.11,1002.03h-120.92v-89.65h7.21v-24.01h24.01v-7.25h89.69v120.92ZM1624.63,3087.71h-7.38v24.01h-24.01v7.17h-89.52v-120.92h120.92v89.74ZM1624.63,2994.37h-120.92v-120.92h89.52v7.18h24.01v24.01h7.39v89.72ZM1624.63,2838.65h-7.39v24.01h-24.01v7.18h-89.52v-120.92h120.92v89.72ZM1624.63,2745.33h-120.92v-120.92h89.95v6.79h24.01v24.01h6.96v90.11ZM1624.63,2589.22h-6.96v24.01h-24.01v7.57h-89.95v-120.92h120.92v89.33ZM1624.63,2496.28h-120.92v-120.92h89.5v7.22h24.01v24.01h7.4v89.69ZM1624.63,2340.61h-7.4v24.01h-24.01v7.14h-89.5v-120.92h120.92v89.76ZM1624.63,2247.24h-120.92v-120.92h89.5v7.21h24.01v24.01h7.4v89.69ZM1624.63,2091.56h-7.4v24.01h-24.01v7.15h-89.5v-120.92h120.92v89.76ZM1624.63,1998.2h-120.92v-120.92h89.56v7.04h24.01v24.01h7.35v89.86ZM1624.63,1842.34h-7.35v24.01h-24.01v7.32h-89.56v-120.92h120.92v89.58ZM1624.63,1749.15h-120.92v-120.92h89.74v7.24h24.01v24.01h7.17v89.66ZM1624.63,1593.5h-7.17v24.01h-24.01v7.12h-89.74v-120.92h120.92v89.79ZM1624.63,1500.11h-120.92v-120.92h90v7.29h24.01v24.01h6.9v89.61ZM1624.63,1344.51h-6.9v24.01h-24.01v7.07h-90v-120.92h120.92v89.83ZM1624.63,1251.07h-120.92v-120.92h90.15v7.18h24.01v24.01h6.75v89.72ZM1624.63,1095.36h-6.75v24.01h-24.01v7.18h-90.15v-120.92h120.92v89.72ZM1624.63,1002.03h-120.92v-120.92h89.72v7.25h24.01v24.01h7.18v89.65ZM1749.15,3118.89h-89.92v-7.17h-24.01v-24.01h-6.98v-89.74h120.92v120.92ZM1749.15,2994.37h-120.92v-89.72h6.97v-24.01h24.01v-7.18h89.93v120.92ZM1749.15,2869.85h-89.93v-7.18h-24.01v-24.01h-6.97v-89.72h120.92v120.92ZM1749.15,2745.33h-120.92v-90.11h7.4v-24.01h24.01v-6.79h89.5v120.92ZM1749.15,2620.8h-89.5v-7.57h-24.01v-24.01h-7.4v-89.33h120.92v120.92ZM1749.15,2496.28h-120.92v-89.69h6.96v-24.01h24.01v-7.22h89.94v120.92ZM1749.15,2371.76h-89.94v-7.14h-24.01v-24.01h-6.96v-89.76h120.92v120.92ZM1749.15,2247.24h-120.92v-89.69h6.96v-24.01h24.01v-7.21h89.95v120.92ZM1749.15,2122.72h-89.95v-7.15h-24.01v-24.01h-6.96v-89.76h120.92v120.92ZM1749.15,1998.2h-120.92v-89.86h7.02v-24.01h24.01v-7.04h89.89v120.92ZM1749.15,1873.68h-89.89v-7.32h-24.01v-24.01h-7.02v-89.58h120.92v120.92ZM1749.15,1749.15h-120.92v-89.66h7.2v-24.01h24.01v-7.24h89.71v120.92ZM1749.15,1624.63h-89.71v-7.12h-24.01v-24.01h-7.2v-89.79h120.92v120.92ZM1749.15,1500.11h-120.92v-89.61h7.46v-24.01h24.01v-7.29h89.44v120.92ZM1749.15,1375.59h-89.44v-7.07h-24.01v-24.01h-7.46v-89.83h120.92v120.92ZM1749.15,1251.07h-120.92v-89.72h7.61v-24.01h24.01v-7.18h89.29v120.92ZM1749.15,1126.55h-89.29v-7.18h-24.01v-24.01h-7.61v-89.72h120.92v120.92ZM1749.15,1002.03h-120.92v-89.65h7.18v-24.01h24.01v-7.25h89.72v120.92ZM1873.68,3087.69h-7.38v24.01h-24.01v7.19h-89.52v-120.92h120.92v89.71ZM1873.68,2994.37h-120.92v-120.92h89.52v7.16h24.01v24.01h7.39v89.75ZM1873.68,2838.63h-7.39v24.01h-24.01v7.2h-89.52v-120.92h120.92v89.7ZM1873.68,2745.33h-120.92v-120.92h89.95v6.77h24.01v24.01h6.96v90.14ZM1873.68,2589.2h-6.96v24.01h-24.01v7.59h-89.95v-120.92h120.92v89.31ZM1873.68,2496.28h-120.92v-120.92h89.5v7.19h24.01v24.01h7.4v89.71ZM1873.68,2340.58h-7.4v24.01h-24.01v7.17h-89.5v-120.92h120.92v89.74ZM1873.68,2247.24h-120.92v-120.92h89.5v7.19h24.01v24.01h7.4v89.71ZM1873.68,2091.54h-7.4v24.01h-24.01v7.17h-89.5v-120.92h120.92v89.73ZM1873.68,1998.2h-120.92v-120.92h89.56v7.02h24.01v24.01h7.34v89.89ZM1873.68,1842.32h-7.34v24.01h-24.01v7.34h-89.56v-120.92h120.92v89.56ZM1873.68,1749.15h-120.92v-120.92h89.75v7.24h24.01v24.01h7.15v89.66ZM1873.68,1593.5h-7.15v24.01h-24.01v7.12h-89.75v-120.92h120.92v89.79ZM1873.68,1500.11h-120.92v-120.92h90.02v7.29h24.01v24.01h6.88v89.61ZM1873.68,1344.51h-6.88v24.01h-24.01v7.07h-90.02v-120.92h120.92v89.83ZM1873.68,1251.07h-120.92v-120.92h90.17v7.18h24.01v24.01h6.73v89.72ZM1873.68,1095.36h-6.73v24.01h-24.01v7.18h-90.17v-120.92h120.92v89.72ZM1873.68,1002.03h-120.92v-120.92h89.74v7.25h24.01v24.01h7.17v89.65ZM1998.2,3118.89h-89.92v-7.19h-24.01v-24.01h-6.98v-89.71h120.92v120.92ZM1998.2,2994.37h-120.92v-89.75h6.98v-24.01h24.01v-7.16h89.93v120.92ZM1998.2,2869.85h-89.93v-7.2h-24.01v-24.01h-6.98v-89.7h120.92v120.92ZM1998.2,2745.33h-120.92v-90.14h7.41v-24.01h24.01v-6.77h89.5v120.92ZM1998.2,2620.8h-89.5v-7.59h-24.01v-24.01h-7.41v-89.31h120.92v120.92ZM1998.2,2496.28h-120.92v-89.71h6.96v-24.01h24.01v-7.19h89.94v120.92ZM1998.2,2371.76h-89.94v-7.17h-24.01v-24.01h-6.96v-89.74h120.92v120.92ZM1998.2,2247.24h-120.92v-89.71h6.96v-24.01h24.01v-7.19h89.94v120.92ZM1998.2,2122.72h-89.94v-7.17h-24.01v-24.01h-6.96v-89.73h120.92v120.92ZM1998.2,1998.2h-120.92v-89.89h7.02v-24.01h24.01v-7.02h89.88v120.92ZM1998.2,1873.68h-89.88v-7.34h-24.01v-24.01h-7.02v-89.56h120.92v120.92ZM1998.2,1749.15h-120.92v-89.66h7.21v-24.01h24.01v-7.24h89.69v120.92ZM1998.2,1624.63h-89.69v-7.12h-24.01v-24.01h-7.21v-89.79h120.92v120.92ZM1998.2,1500.11h-120.92v-89.61h7.48v-24.01h24.01v-7.29h89.43v120.92ZM1998.2,1375.59h-89.43v-7.07h-24.01v-24.01h-7.48v-89.83h120.92v120.92ZM1998.2,1251.07h-120.92v-89.72h7.63v-24.01h24.01v-7.18h89.28v120.92ZM1998.2,1126.55h-89.28v-7.18h-24.01v-24.01h-7.63v-89.72h120.92v120.92ZM1998.2,1002.03h-120.92v-89.65h7.2v-24.01h24.01v-7.25h89.71v120.92ZM2122.72,3087.71h-7.35v24.01h-24.01v7.17h-89.56v-120.92h120.92v89.74ZM2122.72,2994.37h-120.92v-120.92h89.55v7.18h24.01v24.01h7.35v89.72ZM2122.72,2838.65h-7.35v24.01h-24.01v7.18h-89.55v-120.92h120.92v89.72ZM2122.72,2745.33h-120.92v-120.92h89.98v6.79h24.01v24.01h6.92v90.11ZM2122.72,2589.22h-6.92v24.01h-24.01v7.57h-89.98v-120.92h120.92v89.33ZM2122.72,2496.28h-120.92v-120.92h89.54v7.22h24.01v24.01h7.37v89.69ZM2122.72,2340.61h-7.37v24.01h-24.01v7.14h-89.54v-120.92h120.92v89.76ZM2122.72,2247.24h-120.92v-120.92h89.54v7.22h24.01v24.01h7.37v89.69ZM2122.72,2091.56h-7.37v24.01h-24.01v7.15h-89.54v-120.92h120.92v89.76ZM2122.72,1998.2h-120.92v-120.92h89.59v7.04h24.01v24.01h7.31v89.86ZM2122.72,1842.34h-7.31v24.01h-24.01v7.32h-89.59v-120.92h120.92v89.58ZM2122.72,1749.15h-120.92v-120.92h89.74v7.17h24.01v24.01h7.16v89.73ZM2122.72,1593.43h-7.16v24.01h-24.01v7.19h-89.74v-120.92h120.92v89.71ZM2122.72,1500.11h-120.92v-120.92h90.07v7.29h24.01v24.01h6.83v89.61ZM2122.72,1344.51h-6.83v24.01h-24.01v7.07h-90.07v-120.92h120.92v89.83ZM2122.72,1251.07h-120.92v-120.92h90.22v7.18h24.01v24.01h6.68v89.72ZM2122.72,1095.36h-6.68v24.01h-24.01v7.18h-90.22v-120.92h120.92v89.72ZM2122.72,1002.03h-120.92v-120.92h89.79v7.25h24.01v24.01h7.11v89.65ZM2247.24,3118.89h-89.89v-7.17h-24.01v-24.01h-7.01v-89.74h120.92v120.92ZM2247.24,2994.37h-120.92v-89.72h7.01v-24.01h24.01v-7.18h89.89v120.92ZM2247.24,2869.85h-89.89v-7.18h-24.01v-24.01h-7.01v-89.72h120.92v120.92ZM2247.24,2745.33h-120.92v-90.11h7.44v-24.01h24.01v-6.79h89.46v120.92ZM2247.24,2620.8h-89.46v-7.57h-24.01v-24.01h-7.44v-89.33h120.92v120.92ZM2247.24,2496.28h-120.92v-89.69h6.99v-24.01h24.01v-7.22h89.91v120.92ZM2247.24,2371.76h-89.91v-7.14h-24.01v-24.01h-6.99v-89.76h120.92v120.92ZM2247.24,2247.24h-120.92v-89.69h6.99v-24.01h24.01v-7.22h89.91v120.92ZM2247.24,2122.72h-89.91v-7.15h-24.01v-24.01h-6.99v-89.76h120.92v120.92ZM2247.24,1998.2h-120.92v-89.86h7.05v-24.01h24.01v-7.04h89.85v120.92ZM2247.24,1873.68h-89.85v-7.32h-24.01v-24.01h-7.05v-89.58h120.92v120.92ZM2247.24,1749.15h-120.92v-89.73h7.2v-24.01h24.01v-7.17h89.7v120.92ZM2247.24,1624.63h-89.7v-7.19h-24.01v-24.01h-7.2v-89.71h120.92v120.92ZM2247.24,1500.11h-120.92v-89.61h7.53v-24.01h24.01v-7.29h89.37v120.92ZM2247.24,1375.59h-89.37v-7.07h-24.01v-24.01h-7.53v-89.83h120.92v120.92ZM2247.24,1251.07h-120.92v-89.72h7.68v-24.01h24.01v-7.18h89.22v120.92ZM2247.24,1126.55h-89.22v-7.18h-24.01v-24.01h-7.68v-89.72h120.92v120.92ZM2247.24,1002.03h-120.92v-89.65h7.25v-24.01h24.01v-7.25h89.66v120.92ZM2371.76,3087.7h-7.38v24.01h-24.01v7.17h-89.52v-120.92h120.92v89.73ZM2371.76,2994.37h-120.92v-120.92h89.52v7.17h24.01v24.01h7.39v89.73ZM2371.76,2838.65h-7.39v24.01h-24.01v7.19h-89.52v-120.92h120.92v89.72ZM2371.76,2745.33h-120.92v-120.92h89.94v6.78h24.01v24.01h6.96v90.12ZM2371.76,2589.21h-6.96v24.01h-24.01v7.58h-89.94v-120.92h120.92v89.32ZM2371.76,2496.28h-120.92v-120.92h89.5v7.21h24.01v24.01h7.4v89.69ZM2371.76,2340.6h-7.4v24.01h-24.01v7.15h-89.5v-120.92h120.92v89.75ZM2371.76,2247.24h-120.92v-120.92h89.5v7.21h24.01v24.01h7.41v89.7ZM2371.76,2091.55h-7.41v24.01h-24.01v7.15h-89.5v-120.92h120.92v89.75ZM2371.76,1998.2h-120.92v-120.92h89.56v7.03h24.01v24.01h7.35v89.87ZM2371.76,1842.34h-7.35v24.01h-24.01v7.33h-89.56v-120.92h120.92v89.58ZM2371.76,1749.15h-120.92v-120.92h89.7v7.24h24.01v24.01h7.21v89.66ZM2371.76,1593.5h-7.21v24.01h-24.01v7.12h-89.7v-120.92h120.92v89.79ZM2371.76,1500.11h-120.92v-120.92h89.96v7.29h24.01v24.01h6.94v89.61ZM2371.76,1344.51h-6.94v24.01h-24.01v7.07h-89.96v-120.92h120.92v89.83ZM2371.76,1251.07h-120.92v-120.92h90.11v7.18h24.01v24.01h6.79v89.72ZM2371.76,1095.36h-6.79v24.01h-24.01v7.18h-90.11v-120.92h120.92v89.72ZM2371.76,1002.03h-120.92v-120.92h89.68v7.25h24.01v24.01h7.22v89.65ZM2496.28,3118.89h-89.93v-7.17h-24.01v-24.01h-6.98v-89.73h120.92v120.92ZM2496.28,2994.37h-120.92v-89.73h6.97v-24.01h24.01v-7.17h89.93v120.92ZM2496.28,2869.85h-89.93v-7.19h-24.01v-24.01h-6.97v-89.72h120.92v120.92ZM2496.28,2745.33h-120.92v-90.12h7.4v-24.01h24.01v-6.78h89.5v120.92ZM2496.28,2620.8h-89.5v-7.58h-24.01v-24.01h-7.4v-89.32h120.92v120.92ZM2496.28,2496.28h-120.92v-89.69h6.96v-24.01h24.01v-7.21h89.95v120.92ZM2496.28,2371.76h-89.95v-7.15h-24.01v-24.01h-6.96v-89.75h120.92v120.92ZM2496.28,2247.24h-120.92v-89.7h6.96v-24.01h24.01v-7.21h89.95v120.92ZM2496.28,2122.72h-89.95v-7.15h-24.01v-24.01h-6.96v-89.75h120.92v120.92ZM2496.28,1998.2h-120.92v-89.87h7.02v-24.01h24.01v-7.03h89.89v120.92ZM2496.28,1873.68h-89.89v-7.33h-24.01v-24.01h-7.02v-89.58h120.92v120.92ZM2496.28,1749.15h-120.92v-89.66h7.15v-24.01h24.01v-7.24h89.75v120.92ZM2496.28,1624.63h-89.75v-7.12h-24.01v-24.01h-7.15v-89.79h120.92v120.92ZM2496.28,1500.11h-120.92v-89.61h7.42v-24.01h24.01v-7.29h89.48v120.92ZM2496.28,1375.59h-89.48v-7.07h-24.01v-24.01h-7.42v-89.83h120.92v120.92ZM2496.28,1251.07h-120.92v-89.72h7.57v-24.01h24.01v-7.18h89.33v120.92ZM2496.28,1126.55h-89.33v-7.18h-24.01v-24.01h-7.57v-89.72h120.92v120.92ZM2496.28,1002.03h-120.92v-89.65h7.14v-24.01h24.01v-7.25h89.77v120.92ZM2620.8,3087.7h-7.39v24.01h-24.01v7.17h-89.52v-120.92h120.92v89.73ZM2620.8,2994.37h-120.92v-120.92h89.51v7.17h24.01v24.01h7.39v89.73ZM2620.8,2838.65h-7.39v24.01h-24.01v7.19h-89.51v-120.92h120.92v89.72ZM2620.8,2745.33h-120.92v-120.92h89.94v6.78h24.01v24.01h6.96v90.12ZM2620.8,2589.21h-6.96v24.01h-24.01v7.58h-89.94v-120.92h120.92v89.33ZM2620.8,2496.28h-120.92v-120.92h89.5v7.21h24.01v24.01h7.41v89.69ZM2620.8,2340.6h-7.41v24.01h-24.01v7.15h-89.5v-120.92h120.92v89.75ZM2620.8,2247.24h-120.92v-120.92h89.49v7.21h24.01v24.01h7.41v89.7ZM2620.8,2091.55h-7.41v24.01h-24.01v7.15h-89.49v-120.92h120.92v89.75ZM2620.8,1998.2h-120.92v-120.92h89.55v7.04h24.01v24.01h7.35v89.87ZM2620.8,1842.34h-7.35v24.01h-24.01v7.33h-89.55v-120.92h120.92v89.58ZM2620.8,1749.15h-120.92v-120.92h89.66v7.24h24.01v24.01h7.24v89.66ZM2620.8,1593.5h-7.24v24.01h-24.01v7.12h-89.66v-120.92h120.92v89.79ZM2620.8,1500.11h-120.92v-120.92h89.93v7.29h24.01v24.01h6.97v89.61ZM2620.8,1344.51h-6.97v24.01h-24.01v7.07h-89.93v-120.92h120.92v89.83ZM2620.8,1251.07h-120.92v-120.92h90.08v7.18h24.01v24.01h6.82v89.72ZM2620.8,1095.36h-6.82v24.01h-24.01v7.18h-90.08v-120.92h120.92v89.72ZM2620.8,1002.03h-120.92v-120.92h89.65v7.25h24.01v24.01h7.26v89.65ZM2745.32,3118.89h-89.93v-7.17h-24.01v-24.01h-6.97v-89.73h120.92v120.92ZM2745.32,2994.37h-120.92v-89.73h6.97v-24.01h24.01v-7.17h89.93v120.92ZM2745.32,2869.85h-89.93v-7.19h-24.01v-24.01h-6.97v-89.72h120.92v120.92ZM2745.32,2745.33h-120.92v-90.12h7.4v-24.01h24.01v-6.78h89.5v120.92ZM2745.32,2620.8h-89.5v-7.58h-24.01v-24.01h-7.4v-89.33h120.92v120.92ZM2745.32,2496.28h-120.92v-89.69h6.95v-24.01h24.01v-7.21h89.95v120.92ZM2745.32,2371.76h-89.95v-7.15h-24.01v-24.01h-6.95v-89.75h120.92v120.92ZM2745.32,2247.24h-120.92v-89.7h6.95v-24.01h24.01v-7.21h89.95v120.92ZM2745.32,2122.72h-89.95v-7.15h-24.01v-24.01h-6.95v-89.75h120.92v120.92ZM2745.32,1998.2h-120.92v-89.87h7.01v-24.01h24.01v-7.04h89.89v120.92ZM2745.32,1873.68h-89.89v-7.33h-24.01v-24.01h-7.01v-89.58h120.92v120.92ZM2745.32,1749.15h-120.92v-89.66h7.12v-24.01h24.01v-7.24h89.78v120.92ZM2745.32,1624.63h-89.78v-7.12h-24.01v-24.01h-7.12v-89.79h120.92v120.92ZM2745.32,1500.11h-120.92v-89.61h7.39v-24.01h24.01v-7.29h89.52v120.92ZM2745.32,1375.59h-89.52v-7.07h-24.01v-24.01h-7.39v-89.83h120.92v120.92ZM2745.32,1251.07h-120.92v-89.72h7.54v-24.01h24.01v-7.18h89.37v120.92ZM2745.32,1126.55h-89.37v-7.18h-24.01v-24.01h-7.54v-89.72h120.92v120.92ZM2745.32,1002.03h-120.92v-89.65h7.11v-24.01h24.01v-7.25h89.8v120.92ZM2869.85,3087.7h-7.38v24.01h-24.01v7.18h-89.52v-120.92h120.92v89.73ZM2869.85,2994.37h-120.92v-120.92h89.52v7.17h24.01v24.01h7.39v89.73ZM2869.85,2838.65h-7.39v24.01h-24.01v7.19h-89.52v-120.92h120.92v89.71ZM2869.85,2745.33h-120.92v-120.92h89.94v6.78h24.01v24.01h6.96v90.12ZM2869.85,2589.21h-6.96v24.01h-24.01v7.58h-89.94v-120.92h120.92v89.32ZM2869.85,2496.28h-120.92v-120.92h89.5v7.21h24.01v24.01h7.4v89.69ZM2869.85,2340.6h-7.4v24.01h-24.01v7.15h-89.5v-120.92h120.92v89.75ZM2869.85,2247.24h-120.92v-120.92h89.5v7.21h24.01v24.01h7.41v89.7ZM2869.85,2091.55h-7.41v24.01h-24.01v7.16h-89.5v-120.92h120.92v89.75ZM2869.85,1998.2h-120.92v-120.92h89.56v7.03h24.01v24.01h7.35v89.87ZM2869.85,1842.34h-7.35v24.01h-24.01v7.33h-89.56v-120.92h120.92v89.58ZM2869.85,1749.15h-120.92v-120.92h89.71v7.24h24.01v24.01h7.2v89.66ZM2869.85,1593.5h-7.2v24.01h-24.01v7.12h-89.71v-120.92h120.92v89.79ZM2869.85,1500.11h-120.92v-120.92h89.97v7.29h24.01v24.01h6.93v89.61ZM2869.85,1344.51h-6.93v24.01h-24.01v7.07h-89.97v-120.92h120.92v89.83ZM2869.85,1251.07h-120.92v-120.92h90.12v7.18h24.01v24.01h6.78v89.72ZM2869.85,1095.36h-6.78v24.01h-24.01v7.18h-90.12v-120.92h120.92v89.72ZM2869.85,1002.03h-120.92v-120.92h89.69v7.25h24.01v24.01h7.21v89.65ZM2994.37,3118.89h-89.93v-7.18h-24.01v-24.01h-6.98v-89.73h120.92v120.92ZM2994.37,2994.37h-120.92v-89.73h6.97v-24.01h24.01v-7.17h89.93v120.92ZM2994.37,2869.85h-89.93v-7.19h-24.01v-24.01h-6.97v-89.71h120.92v120.92ZM2994.37,2745.33h-120.92v-90.12h7.4v-24.01h24.01v-6.78h89.5v120.92ZM2994.37,2620.8h-89.5v-7.58h-24.01v-24.01h-7.4v-89.32h120.92v120.92ZM2994.37,2496.28h-120.92v-89.69h6.96v-24.01h24.01v-7.21h89.95v120.92ZM2994.37,2371.76h-89.95v-7.15h-24.01v-24.01h-6.96v-89.75h120.92v120.92ZM2994.37,2247.24h-120.92v-89.7h6.96v-24.01h24.01v-7.21h89.95v120.92ZM2994.37,2122.72h-89.95v-7.16h-24.01v-24.01h-6.96v-89.75h120.92v120.92ZM2994.37,1998.2h-120.92v-89.87h7.01v-24.01h24.01v-7.03h89.89v120.92ZM2994.37,1873.68h-89.89v-7.33h-24.01v-24.01h-7.01v-89.58h120.92v120.92ZM2994.37,1749.15h-120.92v-89.66h7.16v-24.01h24.01v-7.24h89.74v120.92ZM2994.37,1624.63h-89.74v-7.12h-24.01v-24.01h-7.16v-89.79h120.92v120.92ZM2994.37,1500.11h-120.92v-89.61h7.43v-24.01h24.01v-7.29h89.48v120.92ZM2994.37,1375.59h-89.48v-7.07h-24.01v-24.01h-7.43v-89.83h120.92v120.92ZM2994.37,1251.07h-120.92v-89.72h7.58v-24.01h24.01v-7.18h89.33v120.92ZM2994.37,1126.55h-89.33v-7.18h-24.01v-24.01h-7.58v-89.72h120.92v120.92ZM2994.37,1002.03h-120.92v-89.65h7.15v-24.01h24.01v-7.25h89.76v120.92ZM3118.89,3087.71h-7.39v24.01h-24.01v7.17h-89.52v-120.92h120.92v89.73ZM3118.89,2994.37h-120.92v-120.92h89.51v7.18h24.01v24.01h7.39v89.73ZM3118.89,2838.65h-7.39v24.01h-24.01v7.19h-89.51v-120.92h120.92v89.72ZM3118.89,2745.33h-120.92v-120.92h89.94v6.79h24.01v24.01h6.96v90.12ZM3118.89,2589.22h-6.96v24.01h-24.01v7.58h-89.94v-120.92h120.92v89.33ZM3118.89,2496.28h-120.92v-120.92h89.5v7.21h24.01v24.01h7.41v89.69ZM3118.89,2340.6h-7.41v24.01h-24.01v7.15h-89.5v-120.92h120.92v89.76ZM3118.89,2247.24h-120.92v-120.92h89.5v7.21h24.01v24.01h7.41v89.69ZM3118.89,2091.56h-7.41v24.01h-24.01v7.15h-89.5v-120.92h120.92v89.75ZM3118.89,1998.2h-120.92v-120.92h89.56v7.04h24.01v24.01h7.35v89.87ZM3118.89,1842.34h-7.35v24.01h-24.01v7.32h-89.56v-120.92h120.92v89.58ZM3118.89,1749.15h-120.92v-120.92h89.73v7.18h24.01v24.01h7.18v89.72ZM3118.89,1593.44h-7.18v24.01h-24.01v7.18h-89.73v-120.92h120.92v89.72ZM3118.89,1500.11h-120.92v-120.92h90.06v7.29h24.01v24.01h6.84v89.61ZM3118.89,1344.51h-6.84v24.01h-24.01v7.07h-90.06v-120.92h120.92v89.83ZM3118.89,1251.07h-120.92v-120.92h90.21v7.18h24.01v24.01h6.69v89.72ZM3118.89,1095.36h-6.69v24.01h-24.01v7.18h-90.21v-120.92h120.92v89.72ZM3118.89,1002.03h-120.92v-120.92h89.78v7.25h24.01v24.01h7.13v89.65Z"/>
</svg>