<?xml version="1.0" encoding="UTF-8"?>
<svg id="Layer_1" data-name="Layer 1" xmlns="http://www.w3.org/2000/svg" viewBox="0 0 4000 4000">
  <defs>
    <style>
      .cls-1 {
        fill: #f8f7f7;
      }
    </style>
  </defs>
  <g id="Yard_Markers" data-name="Yard Markers">
    <g>
      <path class="cls-1" d="M1003.17,2012.74v-2.85h11.66v1.3c0,4.89,2.77,7.34,8.65,7.34,5.3,0,8.32-2.04,8.32-6.85s-2.77-6.85-9.3-6.85h-5.3v-10.11h5.06c5.71,0,8.4-1.88,8.4-6.53s-2.53-6.69-7.42-6.69c-5.14,0-7.75,2.53-7.75,7.18v1.06h-11.5v-1.71c0-10.93,6.69-16.72,19.49-16.72s19.09,5.38,19.09,15.5c0,5.79-2.2,9.79-6.93,11.99v.16c5.71,2.2,8.24,6.61,8.24,13.3,0,11.09-6.85,16.48-20.39,16.48s-20.31-5.38-20.31-15.99Z"/>
      <path class="cls-1" d="M1049.9,2010.05v-20.06c0-12.32,6.93-18.68,20.06-18.68s20.06,6.36,20.06,18.68v20.06c0,12.23-6.93,18.68-20.06,18.68s-20.06-6.44-20.06-18.68ZM1077.96,2009.56v-19.09c0-6.28-2.37-8.97-7.99-8.97s-7.99,2.69-7.99,8.97v19.09c0,6.28,2.37,8.97,7.99,8.97s7.99-2.69,7.99-8.97Z"/>
      <polygon class="cls-1" points="1126.08 2001.18 1101.49 1986.98 1101.49 2015.38 1126.08 2001.18"/>
    </g>
    <g>
      <g>
        <path class="cls-1" d="M2909.91,2012.71v-2.85h11.66v1.31c0,4.89,2.77,7.34,8.65,7.34,5.3,0,8.32-2.04,8.32-6.85s-2.77-6.85-9.3-6.85h-5.3v-10.11h5.06c5.71,0,8.4-1.88,8.4-6.52s-2.53-6.69-7.42-6.69c-5.14,0-7.75,2.53-7.75,7.18v1.06h-11.5v-1.71c0-10.93,6.69-16.72,19.49-16.72s19.09,5.38,19.09,15.5c0,5.79-2.2,9.79-6.93,11.99v.16c5.71,2.2,8.24,6.61,8.24,13.3,0,11.09-6.85,16.48-20.39,16.48s-20.31-5.38-20.31-15.99Z"/>
        <path class="cls-1" d="M2956.64,2010.01v-20.06c0-12.32,6.93-18.68,20.06-18.68s20.06,6.36,20.06,18.68v20.06c0,12.23-6.93,18.68-20.06,18.68s-20.06-6.44-20.06-18.68ZM2984.7,2009.52v-19.09c0-6.28-2.37-8.97-7.99-8.97s-7.99,2.69-7.99,8.97v19.09c0,6.28,2.37,8.97,7.99,8.97s7.99-2.69,7.99-8.97Z"/>
      </g>
      <polygon class="cls-1" points="2873.98 1999.98 2898.57 2014.18 2898.57 1985.78 2873.98 1999.98"/>
    </g>
    <g>
      <path class="cls-1" d="M1997.35,2009.4c0,12.97-6.93,19.33-20.72,19.33-12.89,0-19.9-5.55-19.98-16.48h11.58c.24,4,3.26,6.28,8.32,6.28,5.87,0,8.73-3.02,8.73-8.81s-2.85-8.81-8.24-8.81c-3.51,0-6.2,1.3-8.24,3.34h-10.52l2.04-31.97h34.5v10.36h-24.47l-.73,11.58c2.94-2.28,6.53-3.26,10.77-3.26,11.01,0,16.97,6.44,16.97,18.43Z"/>
      <path class="cls-1" d="M2003.22,2010.05v-20.06c0-12.32,6.93-18.68,20.06-18.68s20.06,6.36,20.06,18.68v20.06c0,12.23-6.93,18.68-20.06,18.68s-20.06-6.44-20.06-18.68ZM2031.28,2009.56v-19.09c0-6.28-2.37-8.97-7.99-8.97s-7.99,2.69-7.99,8.97v19.09c0,6.28,2.37,8.97,7.99,8.97s7.99-2.69,7.99-8.97Z"/>
    </g>
    <g>
      <path class="cls-1" d="M1518.24,2010.05v-20.06c0-12.32,6.93-18.68,20.06-18.68s20.06,6.36,20.06,18.68v20.06c0,12.23-6.93,18.68-20.06,18.68s-20.06-6.44-20.06-18.68ZM1546.3,2009.56v-19.09c0-6.28-2.37-8.97-7.99-8.97s-7.99,2.69-7.99,8.97v19.09c0,6.28,2.37,8.97,7.99,8.97s7.99-2.69,7.99-8.97Z"/>
      <polygon class="cls-1" points="1594.42 2001.18 1569.82 1986.98 1569.82 2015.38 1594.42 2001.18"/>
      <path class="cls-1" d="M1508.13,2005.57v-34.26h-12.89l-25.04,33.52v10.6h25.86v13.3h12.07v-13.3h5.71v-9.87h-5.71ZM1481.79,2005.57l14.27-19.82v19.82h-14.27Z"/>
    </g>
    <g>
      <polygon class="cls-1" points="2403.98 1999.98 2428.57 2014.18 2428.57 1985.78 2403.98 1999.98"/>
      <path class="cls-1" d="M2491.27,2010.01v-20.06c0-12.32,6.93-18.68,20.06-18.68s20.06,6.36,20.06,18.68v20.06c0,12.23-6.93,18.68-20.06,18.68s-20.06-6.44-20.06-18.68ZM2519.33,2009.52v-19.09c0-6.28-2.37-8.97-7.99-8.97s-7.99,2.69-7.99,8.97v19.09c0,6.28,2.37,8.97,7.99,8.97s7.99-2.69,7.99-8.97Z"/>
      <path class="cls-1" d="M2477.95,2005.53v-34.26h-12.89l-25.04,33.52v10.6h25.86v13.3h12.07v-13.3h5.71v-9.87h-5.71ZM2451.6,2005.53l14.27-19.82v19.82h-14.27Z"/>
    </g>
    <g>
      <path class="cls-1" d="M582.3,2010.05v-20.06c0-12.32,6.93-18.68,20.06-18.68s20.06,6.36,20.06,18.68v20.06c0,12.23-6.93,18.68-20.06,18.68s-20.06-6.44-20.06-18.68ZM610.36,2009.56v-19.09c0-6.28-2.37-8.97-7.99-8.97s-7.99,2.69-7.99,8.97v19.09c0,6.28,2.37,8.97,7.99,8.97s7.99-2.69,7.99-8.97Z"/>
      <polygon class="cls-1" points="658.48 2001.18 633.88 1986.98 633.88 2015.38 658.48 2001.18"/>
      <path class="cls-1" d="M558.65,2008.58c12.15-5.46,16.97-11.34,16.97-20.55,0-10.6-6.77-16.72-19.66-16.72s-19.66,6.04-19.66,17.54v2.61h11.42v-1.55c0-5.71,2.69-8.4,8.16-8.4s7.75,2.61,7.75,6.61c0,4.65-2.77,7.42-11.09,11.34-12.4,5.79-17.13,12.07-17.13,22.59v6.69h40.21v-11.34h-28.06c.73-3.34,3.59-5.46,11.09-8.81Z"/>
    </g>
    <g>
      <polygon class="cls-1" points="3341.52 1999.98 3366.12 2014.18 3366.12 1985.78 3341.52 1999.98"/>
      <path class="cls-1" d="M3424.47,2010.01v-20.06c0-12.32,6.93-18.68,20.06-18.68s20.06,6.36,20.06,18.68v20.06c0,12.23-6.93,18.68-20.06,18.68s-20.06-6.44-20.06-18.68ZM3452.52,2009.52v-19.09c0-6.28-2.37-8.97-7.99-8.97s-7.99,2.69-7.99,8.97v19.09c0,6.28,2.37,8.97,7.99,8.97s7.99-2.69,7.99-8.97Z"/>
      <path class="cls-1" d="M3400.82,2008.55c12.15-5.46,16.97-11.34,16.97-20.55,0-10.6-6.77-16.72-19.66-16.72s-19.66,6.04-19.66,17.54v2.61h11.42v-1.55c0-5.71,2.69-8.4,8.16-8.4s7.75,2.61,7.75,6.61c0,4.65-2.77,7.42-11.09,11.34-12.4,5.79-17.13,12.07-17.13,22.59v6.69h40.21v-11.34h-28.06c.73-3.34,3.59-5.46,11.09-8.81Z"/>
    </g>
    <g>
      <polygon class="cls-1" points="184.17 2001.18 159.58 1986.98 159.58 2015.38 184.17 2001.18"/>
      <path class="cls-1" d="M128.06,1971.31c-13.13,0-20.06,6.36-20.06,18.68v20.06c0,12.23,6.93,18.68,20.06,18.68s20.06-6.44,20.06-18.68v-20.06c0-12.32-6.93-18.68-20.06-18.68ZM136.05,2009.56c0,6.28-2.37,8.97-7.99,8.97s-7.99-2.69-7.99-8.97v-19.09c0-6.28,2.37-8.97,7.99-8.97s7.99,2.69,7.99,8.97v19.09Z"/>
      <path class="cls-1" d="M89.83,1971.31c-3.18,4.98-7.75,7.01-15.5,7.18v9.38c4.98-.08,10.2-.33,14.93-1.71v42.58h12.07v-57.42h-11.5Z"/>
    </g>
    <g>
      <polygon class="cls-1" points="3815.83 2000.02 3840.42 2014.22 3840.42 1985.82 3815.83 2000.02"/>
      <path class="cls-1" d="M3905.6,1971.27c-13.13,0-20.06,6.36-20.06,18.68v20.06c0,12.23,6.93,18.68,20.06,18.68s20.06-6.44,20.06-18.68v-20.06c0-12.32-6.93-18.68-20.06-18.68ZM3913.59,2009.52c0,6.28-2.37,8.97-7.99,8.97s-7.99-2.69-7.99-8.97v-19.09c0-6.28,2.37-8.97,7.99-8.97s7.99,2.69,7.99,8.97v19.09Z"/>
      <path class="cls-1" d="M3867.37,1971.27c-3.18,4.98-7.75,7.01-15.5,7.18v9.38c4.98-.08,10.2-.33,14.93-1.71v42.58h12.07v-57.42h-11.5Z"/>
    </g>
  </g>
</svg>